<svg width="28" height="28" viewBox="0 0 28 28" fill="none" xmlns="http://www.w3.org/2000/svg">
<path d="M17.6215 17.8596C17.6215 22.146 14.147 25.6205 9.86054 25.6205C5.57412 25.6205 2.09961 22.146 2.09961 17.8596C2.09961 13.5731 5.57412 10.0986 9.86054 10.0986C10.0635 10.0986 10.2784 10.1106 10.4814 10.1225C14.2664 10.421 17.2991 13.4537 17.5976 17.2387C17.6095 17.4417 17.6215 17.6566 17.6215 17.8596Z" fill="white"/>
<path d="M25.8998 9.6293C25.8998 13.5458 23.0165 16.7775 19.2682 17.3422V17.2701C18.8957 12.6087 15.1114 8.82438 10.414 8.45195H10.3779C10.9426 4.70363 14.1743 1.82031 18.0908 1.82031C22.4038 1.82031 25.8998 5.31634 25.8998 9.6293Z" fill="white"/>
<path d="M6.14672 1.82031H3.22694C2.60691 1.82031 2.09961 2.32712 2.09961 2.94655V5.86351C2.09961 6.86586 3.31712 7.37267 4.02734 6.66314L6.94712 3.74618C7.64607 3.03665 7.15004 1.82031 6.14672 1.82031Z" fill="white"/>
<path d="M20.5006 26.0854H22.8657C23.3679 26.0854 23.7788 25.6749 23.7788 25.1732V22.8104C23.7788 21.9985 22.7926 21.588 22.2173 22.1627L19.8523 24.5255C19.2862 25.1002 19.6879 26.0854 20.5006 26.0854Z" fill="white"/>
</svg>
