<svg width="28" height="28" viewBox="0 0 28 28" fill="none" xmlns="http://www.w3.org/2000/svg">
<path d="M22.2942 5.78648C17.7326 1.22482 10.3242 1.22482 5.76256 5.78648C1.11923 10.4298 1.20089 18.0015 5.99589 22.5515C10.4292 26.7398 17.6159 26.7398 22.0492 22.5515C26.8559 18.0015 26.9376 10.4298 22.2942 5.78648ZM19.1092 19.4248C17.7092 20.7548 15.8659 21.4198 14.0226 21.4198C12.1792 21.4198 10.3359 20.7548 8.9359 19.4248C8.58589 19.0865 8.57423 18.5382 8.9009 18.1882C9.23923 17.8382 9.78756 17.8265 10.1376 18.1532C12.2726 20.1715 15.7609 20.1832 17.9076 18.1532C18.2576 17.8265 18.8176 17.8382 19.1442 18.1882C19.4826 18.5382 19.4592 19.0865 19.1092 19.4248Z" fill="white"/>
</svg>
