<svg width="16" height="16" viewBox="0 0 16 16" fill="none" xmlns="http://www.w3.org/2000/svg">
<path d="M11 0.500488H5C2 0.500488 0.5 2.00049 0.5 5.00049V14.7505C0.5 15.163 0.8375 15.5005 1.25 15.5005H11C14 15.5005 15.5 14.0005 15.5 11.0005V5.00049C15.5 2.00049 14 0.500488 11 0.500488ZM10.625 8.56299H5.375C5.0675 8.56299 4.8125 8.30799 4.8125 8.00049C4.8125 7.69299 5.0675 7.43799 5.375 7.43799H10.625C10.9325 7.43799 11.1875 7.69299 11.1875 8.00049C11.1875 8.30799 10.9325 8.56299 10.625 8.56299Z" fill="#1E1E1E"/>
</svg>
