<svg width="28" height="28" viewBox="0 0 28 28" fill="none" xmlns="http://www.w3.org/2000/svg">
<path d="M7.78232 16.332H4.66732C3.38398 16.332 2.33398 17.382 2.33398 18.6654V24.4987C2.33398 25.1404 2.85898 25.6654 3.50065 25.6654H7.78232C8.42398 25.6654 8.94898 25.1404 8.94898 24.4987V17.4987C8.94898 16.857 8.42398 16.332 7.78232 16.332Z" fill="white"/>
<path d="M15.5518 11.668H12.4368C11.1535 11.668 10.1035 12.718 10.1035 14.0013V24.5013C10.1035 25.143 10.6285 25.668 11.2702 25.668H16.7185C17.3602 25.668 17.8852 25.143 17.8852 24.5013V14.0013C17.8852 12.718 16.8468 11.668 15.5518 11.668Z" fill="white"/>
<path d="M23.3334 19.834H20.2184C19.5768 19.834 19.0518 20.359 19.0518 21.0007V24.5006C19.0518 25.1423 19.5768 25.6673 20.2184 25.6673H24.5001C25.1418 25.6673 25.6668 25.1423 25.6668 24.5006V22.1673C25.6668 20.884 24.6168 19.834 23.3334 19.834Z" fill="white"/>
<path d="M17.511 5.65823C17.8727 5.29656 18.0127 4.8649 17.896 4.49156C17.7794 4.11823 17.4177 3.8499 16.9044 3.76823L15.7844 3.58156C15.7377 3.58156 15.6327 3.4999 15.6094 3.45323L14.991 2.21656C14.5244 1.27156 13.4627 1.27156 12.996 2.21656L12.3777 3.45323C12.366 3.4999 12.261 3.58156 12.2144 3.58156L11.0944 3.76823C10.581 3.8499 10.231 4.11823 10.1027 4.49156C9.98603 4.8649 10.126 5.29656 10.4877 5.65823L11.351 6.53323C11.3977 6.56823 11.4327 6.70823 11.421 6.7549L11.176 7.82823C10.9894 8.63323 11.2927 8.9949 11.491 9.1349C11.6894 9.2749 12.121 9.46156 12.8327 9.04156L13.8827 8.42323C13.9294 8.38823 14.081 8.38823 14.1277 8.42323L15.166 9.04156C15.4927 9.2399 15.761 9.29823 15.971 9.29823C16.216 9.29823 16.391 9.2049 16.496 9.1349C16.6944 8.9949 16.9977 8.63323 16.811 7.82823L16.566 6.7549C16.5544 6.69656 16.5894 6.56823 16.636 6.53323L17.511 5.65823Z" fill="white"/>
</svg>
