<svg width="18" height="18" viewBox="0 0 18 18" fill="none" xmlns="http://www.w3.org/2000/svg">
<path d="M6.75 1.50049C4.785 1.50049 3.1875 3.09799 3.1875 5.06299C3.1875 6.99049 4.695 8.55049 6.66 8.61799C6.72 8.61049 6.78 8.61049 6.825 8.61799C6.84 8.61799 6.8475 8.61799 6.8625 8.61799C6.87 8.61799 6.87 8.61799 6.8775 8.61799C8.7975 8.55049 10.305 6.99049 10.3125 5.06299C10.3125 3.09799 8.715 1.50049 6.75 1.50049Z" fill="#1E1E1E"/>
<path d="M10.5607 10.6127C8.4682 9.21766 5.0557 9.21766 2.9482 10.6127C1.9957 11.2502 1.4707 12.1127 1.4707 13.0352C1.4707 13.9577 1.9957 14.8127 2.9407 15.4427C3.9907 16.1477 5.3707 16.5002 6.7507 16.5002C8.1307 16.5002 9.5107 16.1477 10.5607 15.4427C11.5057 14.8052 12.0307 13.9502 12.0307 13.0202C12.0232 12.0977 11.5057 11.2427 10.5607 10.6127Z" fill="#1E1E1E"/>
<path d="M14.993 5.50556C15.113 6.96056 14.078 8.23556 12.6455 8.40806C12.638 8.40806 12.638 8.40806 12.6305 8.40806H12.608C12.563 8.40806 12.518 8.40806 12.4805 8.42306C11.753 8.46056 11.0855 8.22806 10.583 7.80056C11.3555 7.11056 11.798 6.07556 11.708 4.95056C11.6555 4.34306 11.4455 3.78806 11.1305 3.31556C11.4155 3.17306 11.7455 3.08306 12.083 3.05306C13.553 2.92556 14.8655 4.02056 14.993 5.50556Z" fill="#1E1E1E"/>
<path d="M16.4922 12.4418C16.4322 13.1693 15.9672 13.7993 15.1872 14.2268C14.4372 14.6393 13.4922 14.8343 12.5547 14.8118C13.0947 14.3243 13.4097 13.7168 13.4697 13.0718C13.5447 12.1418 13.1022 11.2493 12.2172 10.5368C11.7147 10.1393 11.1297 9.82432 10.4922 9.59182C12.1497 9.11182 14.2347 9.43432 15.5172 10.4693C16.2072 11.0243 16.5597 11.7218 16.4922 12.4418Z" fill="#1E1E1E"/>
</svg>
