<svg width="22" height="22" viewBox="0 0 22 22" fill="none" xmlns="http://www.w3.org/2000/svg">
<path opacity="0.96" d="M10.8325 0.0107226C11.262 -0.0432846 11.7573 0.112517 12.1128 0.347795C12.6616 0.710967 12.9703 1.28668 13.0241 1.93388C13.0489 2.23258 13.0303 2.53393 13.0406 2.83326C13.0531 3.13564 13.0894 3.43517 13.1496 3.73184C13.6696 6.30699 15.8008 8.44139 18.4192 8.88278C18.6962 8.92859 18.975 8.95788 19.2555 8.97066C19.9472 8.99647 20.5483 8.96242 21.1516 9.36905C21.5851 9.66128 21.8725 10.1434 21.9673 10.6523C22.0615 11.1587 21.951 11.7046 21.6514 12.1269C21.3172 12.598 20.7663 12.8978 20.1941 12.9591C19.9448 12.9858 19.6875 12.9695 19.4366 12.9778C19.1116 12.9854 18.7891 13.0177 18.469 13.0745C15.8326 13.5375 13.6158 15.6 13.1413 18.249C13.0863 18.5706 13.0545 18.8945 13.0458 19.2206C13.0305 19.9371 13.087 20.51 12.6441 21.1276C12.2822 21.6324 11.7923 21.8957 11.1853 21.9931C11.1542 21.9957 11.1231 21.9975 11.0919 21.9987C11.0608 21.9998 11.0296 22.0002 10.9985 21.9999C10.9673 21.9995 10.9361 21.9985 10.905 21.9967C10.8739 21.9949 10.8428 21.9924 10.8118 21.9891C10.7808 21.9859 10.7499 21.9819 10.7191 21.9772C10.6883 21.9725 10.6576 21.967 10.627 21.9609C10.5965 21.9547 10.5661 21.9479 10.5358 21.9403C10.5056 21.9327 10.4755 21.9244 10.4457 21.9154C10.4159 21.9065 10.3863 21.8968 10.3569 21.8864C10.3275 21.876 10.2984 21.8649 10.2695 21.8532C10.2407 21.8414 10.2121 21.829 10.1839 21.8159C10.1556 21.8028 10.1277 21.7891 10.1 21.7747C10.0724 21.7602 10.0452 21.7452 10.0183 21.7295C9.99141 21.7138 9.9649 21.6975 9.93879 21.6805C9.91267 21.6636 9.88697 21.6461 9.86167 21.6279C9.8364 21.6098 9.81157 21.591 9.78717 21.5717C8.73771 20.7404 9.05925 19.7553 8.9192 18.6278C8.57155 15.8286 6.30681 13.6395 3.58425 13.066C3.24966 12.9956 2.90087 12.9589 2.55909 12.9439C1.88593 12.9144 1.31584 12.9394 0.756942 12.4989C0.360484 12.1864 0.0700489 11.699 0.0118605 11.1968C-0.0467927 10.6904 0.114884 10.1518 0.435025 9.75488C1.18121 8.8297 2.05179 9.04883 3.08714 8.93229C5.8528 8.6209 8.26413 6.5598 8.83152 3.8167C8.8986 3.47522 8.93778 3.1306 8.94908 2.78283C8.97055 2.0145 8.90205 1.39785 9.42591 0.754214C9.44743 0.727932 9.46961 0.702183 9.49242 0.676965C9.51524 0.651776 9.53867 0.627175 9.5627 0.603162C9.58676 0.579122 9.61139 0.555698 9.63661 0.53289C9.66185 0.510082 9.68764 0.487919 9.71398 0.4664C9.74029 0.444853 9.76714 0.423979 9.79452 0.403777C9.82191 0.383603 9.84978 0.364102 9.87815 0.345273C9.90652 0.326472 9.93534 0.308372 9.96461 0.290972C9.99388 0.2736 10.0236 0.256956 10.0536 0.241041C10.0838 0.225126 10.1142 0.209968 10.1451 0.195566C10.176 0.181164 10.2072 0.167546 10.2387 0.154713C10.2703 0.141853 10.3021 0.129791 10.3343 0.118527C10.3664 0.107263 10.3988 0.0967982 10.4315 0.0871315C10.4642 0.0774649 10.4971 0.0686106 10.5302 0.0605691C10.5633 0.0525556 10.5966 0.0453543 10.6301 0.0389659C10.6636 0.0325775 10.6972 0.0270298 10.7309 0.0223226C10.7647 0.0176154 10.7986 0.0137486 10.8325 0.0107226Z" fill="white"/>
</svg>
