<svg width="20" height="20" viewBox="0 0 20 20" fill="none" xmlns="http://www.w3.org/2000/svg">
<path fill-rule="evenodd" clip-rule="evenodd" d="M2.66866 9.06501C7.23205 7.0768 10.275 5.76604 11.7976 5.13275C16.1448 3.32458 17.0481 3.01048 17.6369 3.00011C17.7664 2.99783 18.0559 3.02992 18.2435 3.18211C18.4018 3.31061 18.4454 3.4842 18.4663 3.60603C18.4871 3.72787 18.5131 4.00541 18.4924 4.22228C18.2569 6.69753 17.2375 12.7043 16.7189 15.4766C16.4995 16.6497 16.0674 17.043 15.6492 17.0815C14.7401 17.1652 14.0498 16.4808 13.1694 15.9036C11.7916 15.0005 11.0133 14.4383 9.67597 13.557C8.13045 12.5385 9.13235 11.9787 10.0131 11.0639C10.2436 10.8245 14.2489 7.18136 14.3264 6.85087C14.3361 6.80954 14.3451 6.65546 14.2536 6.57411C14.1621 6.49275 14.027 6.52057 13.9295 6.5427C13.7913 6.57406 11.5904 8.02882 7.32663 10.907C6.7019 11.336 6.13604 11.545 5.62904 11.534C5.07012 11.522 3.99499 11.218 3.19573 10.9582C2.21541 10.6395 1.43627 10.4711 1.50412 9.92986C1.53946 9.64797 1.92764 9.35969 2.66866 9.06501Z" fill="#1E1E1E"/>
</svg>
