<svg width="20" height="20" viewBox="0 0 20 20" fill="none" xmlns="http://www.w3.org/2000/svg">
<path d="M13.492 1.66699H6.50866C3.47533 1.66699 1.66699 3.47533 1.66699 6.50866V13.4837C1.66699 16.5253 3.47533 18.3337 6.50866 18.3337H13.4837C16.517 18.3337 18.3253 16.5253 18.3253 13.492V6.50866C18.3337 3.47533 16.5253 1.66699 13.492 1.66699ZM14.067 9.60866C14.067 9.93366 13.8087 10.192 13.4837 10.192C13.1587 10.192 12.9003 9.93366 12.9003 9.60866V9.45866L10.6337 11.7253C10.5087 11.8503 10.342 11.9087 10.167 11.892C9.99199 11.8753 9.83366 11.7837 9.74199 11.6337L8.89199 10.367L6.90866 12.3503C6.79199 12.467 6.65033 12.517 6.50033 12.517C6.35033 12.517 6.20033 12.4587 6.09199 12.3503C5.86699 12.1253 5.86699 11.7587 6.09199 11.5253L8.57533 9.04199C8.70033 8.91699 8.86699 8.85866 9.04199 8.87533C9.21699 8.89199 9.37533 8.98366 9.46699 9.13366L10.317 10.4003L12.0753 8.64199H11.9253C11.6003 8.64199 11.342 8.38366 11.342 8.05866C11.342 7.73366 11.6003 7.47533 11.9253 7.47533H13.4753C13.5503 7.47533 13.6253 7.49199 13.7003 7.51699C13.842 7.57533 13.9587 7.69199 14.017 7.83366C14.0503 7.90866 14.0587 7.98366 14.0587 8.05866V9.60866H14.067Z" fill="#1E1E1E"/>
</svg>
