<svg width="20" height="20" viewBox="0 0 20 20" fill="none" xmlns="http://www.w3.org/2000/svg">
<path d="M18.3337 9.37533H16.6337C16.3337 6.20033 13.8003 3.65866 10.6253 3.36699V1.66699C10.6253 1.32533 10.342 1.04199 10.0003 1.04199C9.65866 1.04199 9.37533 1.32533 9.37533 1.66699V3.36699C6.20033 3.66699 3.65866 6.20033 3.36699 9.37533H1.66699C1.32533 9.37533 1.04199 9.65866 1.04199 10.0003C1.04199 10.342 1.32533 10.6253 1.66699 10.6253H3.36699C3.66699 13.8003 6.20033 16.342 9.37533 16.6337V18.3337C9.37533 18.6753 9.65866 18.9587 10.0003 18.9587C10.342 18.9587 10.6253 18.6753 10.6253 18.3337V16.6337C13.8003 16.3337 16.342 13.8003 16.6337 10.6253H18.3337C18.6753 10.6253 18.9587 10.342 18.9587 10.0003C18.9587 9.65866 18.6753 9.37533 18.3337 9.37533ZM10.0003 12.6003C8.56699 12.6003 7.40033 11.4337 7.40033 10.0003C7.40033 8.56699 8.56699 7.40033 10.0003 7.40033C11.4337 7.40033 12.6003 8.56699 12.6003 10.0003C12.6003 11.4337 11.4337 12.6003 10.0003 12.6003Z" fill="#1E1E1E"/>
</svg>
