<svg width="18" height="18" viewBox="0 0 18 18" fill="none" xmlns="http://www.w3.org/2000/svg">
<path d="M11.2496 2.7002C9.51067 2.7002 8.09961 4.11125 8.09961 5.8502C8.09961 7.58914 9.51067 9.00019 11.2496 9.00019C12.9886 9.00019 14.3996 7.58914 14.3996 5.8502C14.3996 4.11125 12.9886 2.7002 11.2496 2.7002Z" fill="#1E1E1E"/>
<path d="M5.39961 9.90039C4.41042 9.90039 3.59961 10.7058 3.59961 11.7004C3.59961 12.695 4.40501 13.5004 5.39961 13.5004C6.3888 13.5004 7.19961 12.695 7.19961 11.7004C7.19961 10.7058 6.3888 9.90039 5.39961 9.90039Z" fill="#1E1E1E"/>
<path d="M11.7004 11.7002C10.7075 11.7002 9.90039 12.5073 9.90039 13.5002C9.90039 14.4931 10.7075 15.3002 11.7004 15.3002C12.6933 15.3002 13.5004 14.4931 13.5004 13.5002C13.5004 12.5073 12.6933 11.7002 11.7004 11.7002Z" fill="#1E1E1E"/>
</svg>
