<svg width="36" height="37" viewBox="0 0 36 37" fill="none" xmlns="http://www.w3.org/2000/svg">
<path d="M17.726 0.517546C18.4286 0.429171 19.2393 0.684118 19.821 1.06912C20.719 1.6634 21.2241 2.60548 21.3122 3.66454C21.3528 4.15332 21.3222 4.64643 21.3392 5.13624C21.3596 5.63105 21.419 6.12119 21.5176 6.60665C22.3684 10.8205 25.8559 14.3132 30.1405 15.0355C30.5938 15.1104 31.05 15.1584 31.509 15.1793C32.6409 15.2215 33.6244 15.1658 34.6117 15.8312C35.3211 16.3094 35.7914 17.0984 35.9464 17.931C36.1007 18.7597 35.9198 19.653 35.4295 20.344C34.8826 21.1149 33.9812 21.6056 33.045 21.7058C32.6369 21.7494 32.2159 21.7228 31.8053 21.7364C31.2735 21.7488 30.7457 21.8016 30.222 21.8947C25.9079 22.6523 22.2803 26.0273 21.504 30.3619C21.414 30.8883 21.3619 31.4183 21.3477 31.952C21.3227 33.1244 21.415 34.0618 20.6904 35.0724C20.0981 35.8985 19.2965 36.3293 18.3032 36.4887C18.2524 36.4929 18.2014 36.496 18.1505 36.4978C18.0995 36.4997 18.0485 36.5004 17.9975 36.4998C17.9465 36.4993 17.8955 36.4975 17.8446 36.4946C17.7936 36.4916 17.7428 36.4875 17.692 36.4822C17.6413 36.4769 17.5907 36.4704 17.5403 36.4627C17.4899 36.455 17.4396 36.4461 17.3896 36.436C17.3397 36.4259 17.2899 36.4147 17.2404 36.4023C17.1909 36.3899 17.1418 36.3763 17.093 36.3616C17.0442 36.3469 16.9957 36.3311 16.9476 36.3141C16.8995 36.297 16.8519 36.2789 16.8047 36.2597C16.7575 36.2405 16.7108 36.2202 16.6645 36.1987C16.6182 36.1773 16.5725 36.1548 16.5273 36.1312C16.4822 36.1076 16.4376 36.083 16.3936 36.0573C16.3496 36.0316 16.3062 36.005 16.2635 35.9773C16.2207 35.9495 16.1787 35.9208 16.1373 35.8912C16.0959 35.8614 16.0553 35.8308 16.0154 35.7992C14.2981 34.4389 14.8242 32.8269 14.5951 30.9819C14.0262 26.4014 10.3202 22.8192 5.86514 21.8808C5.31763 21.7655 4.74688 21.7054 4.1876 21.6809C3.08607 21.6327 2.15319 21.6735 1.23863 20.9527C0.589883 20.4414 0.114625 19.6438 0.0194082 18.822C-0.0765698 17.9933 0.187991 17.112 0.71186 16.4625C1.93288 14.9486 3.35748 15.3072 5.05168 15.1165C9.57731 14.6069 13.5231 11.2342 14.4516 6.7455C14.5613 6.18673 14.6255 5.6228 14.6439 5.05372C14.6791 3.79645 14.567 2.78738 15.4242 1.73417C15.4594 1.69116 15.4957 1.64903 15.5331 1.60776C15.5704 1.56654 15.6087 1.52629 15.6481 1.48699C15.6874 1.44765 15.7277 1.40932 15.769 1.372C15.8103 1.33468 15.8525 1.29841 15.8956 1.2632C15.9387 1.22794 15.9826 1.19378 16.0274 1.16073C16.0722 1.12771 16.1178 1.0958 16.1642 1.06499C16.2107 1.03423 16.2578 1.00461 16.3057 0.976136C16.3536 0.947709 16.4022 0.920473 16.4514 0.894431C16.5007 0.868388 16.5506 0.843583 16.6011 0.820016C16.6516 0.79645 16.7027 0.774167 16.7543 0.753168C16.8059 0.732122 16.858 0.712385 16.9106 0.693953C16.9632 0.675522 17.0163 0.658397 17.0697 0.642579C17.1232 0.626761 17.177 0.612272 17.2312 0.599113C17.2854 0.586 17.3399 0.574216 17.3947 0.563762C17.4495 0.553309 17.5045 0.544231 17.5597 0.536528C17.615 0.528825 17.6704 0.522498 17.726 0.517546Z" fill="white"/>
<circle cx="30.75" cy="5.75" r="5.25" fill="white"/>
<circle cx="5.25" cy="5.75" r="5.25" fill="white"/>
<circle cx="5.25" cy="31.25" r="5.25" fill="white"/>
<circle cx="30.75" cy="31.25" r="5.25" fill="white"/>
</svg>
