<svg width="18" height="18" viewBox="0 0 18 18" fill="none" xmlns="http://www.w3.org/2000/svg">
<path d="M12 1.50049H6C3 1.50049 1.5 3.00049 1.5 6.00049V15.7505C1.5 16.163 1.8375 16.5005 2.25 16.5005H12C15 16.5005 16.5 15.0005 16.5 12.0005V6.00049C16.5 3.00049 15 1.50049 12 1.50049ZM11.625 9.56299H6.375C6.0675 9.56299 5.8125 9.30799 5.8125 9.00049C5.8125 8.69299 6.0675 8.43799 6.375 8.43799H11.625C11.9325 8.43799 12.1875 8.69299 12.1875 9.00049C12.1875 9.30799 11.9325 9.56299 11.625 9.56299Z" fill="#1E1E1E"/>
</svg>
