<svg width="20" height="20" viewBox="0 0 20 20" fill="none" xmlns="http://www.w3.org/2000/svg">
<path d="M13.3337 1.66699H6.66699C3.33366 1.66699 1.66699 3.33366 1.66699 6.66699V17.5003C1.66699 17.9587 2.04199 18.3337 2.50033 18.3337H13.3337C16.667 18.3337 18.3337 16.667 18.3337 13.3337V6.66699C18.3337 3.33366 16.667 1.66699 13.3337 1.66699ZM11.667 12.7087H5.83366C5.49199 12.7087 5.20866 12.4253 5.20866 12.0837C5.20866 11.742 5.49199 11.4587 5.83366 11.4587H11.667C12.0087 11.4587 12.292 11.742 12.292 12.0837C12.292 12.4253 12.0087 12.7087 11.667 12.7087ZM14.167 8.54199H5.83366C5.49199 8.54199 5.20866 8.25866 5.20866 7.91699C5.20866 7.57533 5.49199 7.29199 5.83366 7.29199H14.167C14.5087 7.29199 14.792 7.57533 14.792 7.91699C14.792 8.25866 14.5087 8.54199 14.167 8.54199Z" fill="#1E1E1E"/>
</svg>
