<svg width="20" height="20" viewBox="0 0 20 20" fill="none" xmlns="http://www.w3.org/2000/svg">
<path d="M13.492 1.66699H6.50866C3.47533 1.66699 1.66699 3.47533 1.66699 6.50866V13.4837C1.66699 16.5253 3.47533 18.3337 6.50866 18.3337H13.4837C16.517 18.3337 18.3253 16.5253 18.3253 13.492V6.50866C18.3337 3.47533 16.5253 1.66699 13.492 1.66699ZM5.83366 11.092C5.23366 11.092 4.74199 10.6003 4.74199 10.0003C4.74199 9.40033 5.23366 8.90866 5.83366 8.90866C6.43366 8.90866 6.92533 9.40033 6.92533 10.0003C6.92533 10.6003 6.43366 11.092 5.83366 11.092ZM10.0003 11.092C9.40033 11.092 8.90866 10.6003 8.90866 10.0003C8.90866 9.40033 9.40033 8.90866 10.0003 8.90866C10.6003 8.90866 11.092 9.40033 11.092 10.0003C11.092 10.6003 10.6003 11.092 10.0003 11.092ZM14.167 11.092C13.567 11.092 13.0753 10.6003 13.0753 10.0003C13.0753 9.40033 13.567 8.90866 14.167 8.90866C14.767 8.90866 15.2587 9.40033 15.2587 10.0003C15.2587 10.6003 14.767 11.092 14.167 11.092Z" fill="#1E1E1E"/>
</svg>
