<svg width="20" height="20" viewBox="0 0 20 20" fill="none" xmlns="http://www.w3.org/2000/svg">
<path d="M17.5003 6.26699V11.167C17.5003 11.4503 17.2253 11.6503 16.9587 11.567L13.6837 10.5503C12.7837 10.2753 11.817 10.5087 11.1587 11.167C10.492 11.8337 10.2503 12.8087 10.5337 13.7087L11.542 16.9587C11.6253 17.2253 11.4253 17.5003 11.142 17.5003H6.26699C3.39199 17.5003 1.66699 15.7837 1.66699 12.9003V6.26699C1.66699 3.38366 3.39199 1.66699 6.26699 1.66699H12.9003C15.7753 1.66699 17.5003 3.38366 17.5003 6.26699Z" fill="#1E1E1E"/>
<path d="M18.2997 15.6997L16.9414 16.1581C16.5664 16.2831 16.2664 16.5747 16.1414 16.9581L15.6831 18.3164C15.2914 19.4914 13.6414 19.4664 13.2747 18.2914L11.7331 13.3331C11.4331 12.3497 12.3414 11.4331 13.3164 11.7414L18.2831 13.2831C19.4497 13.6497 19.4664 15.3081 18.2997 15.6997Z" fill="#1E1E1E"/>
</svg>
