<svg width="18" height="18" viewBox="0 0 18 18" fill="none" xmlns="http://www.w3.org/2000/svg">
<path d="M13.8518 12.623L14.1443 14.993C14.2193 15.6155 13.5518 16.0505 13.0193 15.728L10.4243 14.183C10.2443 14.078 10.1993 13.853 10.2968 13.673C10.6718 12.983 10.8743 12.203 10.8743 11.423C10.8743 8.67799 8.51931 6.44299 5.62431 6.44299C5.03181 6.44299 4.45431 6.53299 3.91431 6.71299C3.63681 6.80299 3.36681 6.54799 3.43431 6.26299C4.11681 3.53299 6.74181 1.50049 9.87681 1.50049C13.5368 1.50049 16.4993 4.26799 16.4993 7.68049C16.4993 9.70549 15.4568 11.498 13.8518 12.623Z" fill="#1E1E1E"/>
<path d="M9.75 11.4224C9.75 12.3149 9.42 13.1399 8.865 13.7924C8.1225 14.6924 6.945 15.2699 5.625 15.2699L3.6675 16.4324C3.3375 16.6349 2.9175 16.3574 2.9625 15.9749L3.15 14.4974C2.145 13.7999 1.5 12.6824 1.5 11.4224C1.5 10.1024 2.205 8.93988 3.285 8.24988C3.9525 7.81488 4.755 7.56738 5.625 7.56738C7.905 7.56738 9.75 9.29238 9.75 11.4224Z" fill="#1E1E1E"/>
</svg>
