<svg width="18" height="18" viewBox="0 0 18 18" fill="none" xmlns="http://www.w3.org/2000/svg">
<path d="M12 3.18799C12 4.11799 11.2425 4.87549 10.3125 4.87549H7.6875C7.2225 4.87549 6.8025 4.68799 6.495 4.38049C6.1875 4.07299 6 3.65299 6 3.18799C6 2.25799 6.7575 1.50049 7.6875 1.50049H10.3125C10.7775 1.50049 11.1975 1.68799 11.505 1.99549C11.8125 2.30299 12 2.72299 12 3.18799Z" fill="#1E1E1E"/>
<path d="M14.1225 3.77302C13.95 3.63052 13.755 3.51802 13.545 3.43552C13.3275 3.35302 13.11 3.52552 13.065 3.75052C12.81 5.03302 11.6775 6.00052 10.3125 6.00052H7.6875C6.9375 6.00052 6.2325 5.70802 5.7 5.17552C5.31 4.78552 5.04 4.29052 4.935 3.75802C4.89 3.53302 4.665 3.35302 4.4475 3.44302C3.5775 3.79552 3 4.59052 3 6.18802V13.5005C3 15.7505 4.3425 16.5005 6 16.5005H12C13.6575 16.5005 15 15.7505 15 13.5005V6.18802C15 4.96552 14.6625 4.21552 14.1225 3.77302ZM6 9.18802H9C9.3075 9.18802 9.5625 9.44302 9.5625 9.75052C9.5625 10.058 9.3075 10.313 9 10.313H6C5.6925 10.313 5.4375 10.058 5.4375 9.75052C5.4375 9.44302 5.6925 9.18802 6 9.18802ZM12 13.313H6C5.6925 13.313 5.4375 13.058 5.4375 12.7505C5.4375 12.443 5.6925 12.188 6 12.188H12C12.3075 12.188 12.5625 12.443 12.5625 12.7505C12.5625 13.058 12.3075 13.313 12 13.313Z" fill="#1E1E1E"/>
</svg>
